<?xml version="1.0" encoding="UTF-8"?>
<!DOCTYPE svg PUBLIC "-//W3C//DTD SVG 1.1//EN" "http://www.w3.org/Graphics/SVG/1.1/DTD/svg11.dtd">
<!-- Creator: CorelDRAW 2020 (64 Bit) -->
<svg xmlns="http://www.w3.org/2000/svg" xml:space="preserve" width="6mm" height="6mm" version="1.1" style="shape-rendering:geometricPrecision; text-rendering:geometricPrecision; image-rendering:optimizeQuality; fill-rule:evenodd; clip-rule:evenodd"
viewBox="0 0 17.59 17.59"
 xmlns:xlink="http://www.w3.org/1999/xlink"
 xmlns:xodm="http://www.corel.com/coreldraw/odm/2003">
 <defs>
  <style type="text/css">
   <![CDATA[
    .fil1 {fill:#373435}
    .fil0 {fill:#373435;fill-rule:nonzero}
   ]]>
  </style>
 </defs>
 <g id="Camada_x0020_1">
  <metadata id="CorelCorpID_0Corel-Layer"/>
  <path class="fil0" d="M8.79 4.11c1.29,0 2.46,0.52 3.31,1.37l0 0c0.85,0.85 1.37,2.02 1.37,3.31 0,1.29 -0.52,2.46 -1.37,3.31l-0 0c-0.85,0.85 -2.02,1.37 -3.31,1.37 -1.29,0 -2.46,-0.52 -3.31,-1.37l-0 -0c-0.85,-0.85 -1.37,-2.02 -1.37,-3.31 0,-1.29 0.52,-2.46 1.37,-3.31l0 -0c0.85,-0.85 2.02,-1.37 3.31,-1.37zm2.13 2.55c-0.55,-0.54 -1.3,-0.88 -2.13,-0.88 -0.83,0 -1.59,0.34 -2.13,0.88 -0.54,0.55 -0.88,1.3 -0.88,2.13 0,0.83 0.34,1.59 0.88,2.13 0.55,0.54 1.3,0.88 2.13,0.88 0.83,0 1.59,-0.34 2.13,-0.88 0.54,-0.55 0.88,-1.3 0.88,-2.13 0,-0.83 -0.34,-1.59 -0.88,-2.13z"/>
  <path class="fil1" d="M13.22 3.18c0.5,0 0.9,0.4 0.9,0.9 0,0.5 -0.41,0.9 -0.9,0.9 -0.5,0 -0.9,-0.4 -0.9,-0.9 0,-0.5 0.4,-0.9 0.9,-0.9z"/>
  <path class="fil0" d="M4.7 0l8.19 0c1.29,0 2.47,0.53 3.32,1.38 0.85,0.85 1.38,2.03 1.38,3.32l0 8.19c0,1.29 -0.53,2.47 -1.38,3.32 -0.85,0.85 -2.03,1.38 -3.32,1.38l-8.19 0c-1.29,0 -2.47,-0.53 -3.32,-1.38 -0.85,-0.85 -1.38,-2.03 -1.38,-3.32l0 -8.19c0,-1.29 0.53,-2.47 1.38,-3.32 0.85,-0.85 2.03,-1.38 3.32,-1.38zm8.19 1.67l-8.19 0c-0.83,0 -1.59,0.34 -2.14,0.89 -0.55,0.55 -0.89,1.31 -0.89,2.14l0 8.19c0,0.83 0.34,1.59 0.89,2.14 0.55,0.55 1.31,0.89 2.14,0.89l8.19 0c0.83,0 1.59,-0.34 2.14,-0.89 0.55,-0.55 0.89,-1.31 0.89,-2.14l0 -8.19c0,-0.83 -0.34,-1.59 -0.89,-2.14 -0.55,-0.55 -1.31,-0.89 -2.14,-0.89z"/>
 </g>
</svg>
